<svg xmlns="http://www.w3.org/2000/svg" width="60" height="60" viewBox="0 0 60 60">
  <defs>
    <style>
      .cls-1, .cls-2 {
      fill: none;
      stroke: #0071bc;
      stroke-miterlimit: 10;
      stroke-width: 2px;
      }

      .cls-2 {
      stroke-linecap: round;
      stroke-dasharray: 60;
      stroke-dashoffset: 60;
      animation: dash 3s infinite ease-in-out;
      }

      @keyframes dash {
        0% {
          stroke-dashoffset: 60;
        }
      
        100% {
          stroke-dashoffset: -60;
        }
      }
    </style>

  </defs>
  <g id="Layer_2" data-name="Layer 2">
    <g id="Layer_1-2" data-name="Layer 1">
      <g>
        <path class="cls-1"
          d="M15,56.29,1.41,42.74l5-4.94,1.77,1.77L19.9,51.34ZM25,36.68l15.48-.13s2.83-.55,2.76-3-2.79-2.63-2.79-2.63-16.92.07-19.86,0a10,10,0,0,0-5.56,2L8.13,39.48m9.93,9.64c2.22-2.45,3.34-2.52,3.34-2.52s13.24.07,16,0,5.25-2.53,5.25-2.53L56.67,30a4.08,4.08,0,0,0-.13-4.1c-1.3-2.32-4.78-.61-4.78-.61l-8.53,8.36" />
        <path class="cls-1"
          d="M47.13,3.21a7.55,7.55,0,0,0-10.68,0L33.79,5.87,31.13,3.21A7.55,7.55,0,0,0,20.46,13.89l2.66,2.66h0L33.78,27.23h0L44.48,16.56h0l2.66-2.66A7.55,7.55,0,0,0,47.13,3.21Z" />
        <polyline class="cls-2" id="line"
          points="14.55 13.51 26.83 13.51 30.44 7.26 35.58 18.15 38.4 10.19 40.4 15.67 41.42 13.68 52.78 13.68" />
      </g>
    </g>
  </g>
  <!-- <script type="text/javascript">
    console.log("222");
    let path = document.getElementById("line");
    let len = path.getTotalLength();
    console.log(len);
  </script> -->
</svg>