<?xml version="1.0" encoding="UTF-8"?>
<svg xmlns="http://www.w3.org/2000/svg" width="371.98" height="135.52" viewBox="0 0 371.98 135.52">
  <title>logo</title>
  <path d="M123.74,300.83c13.66-.39,29.49-3.07,35.83-12.63,12.13-18.3,4.25-34.8-9.21-49.44,10.61,18.09,9.14,31.43,7.07,38.18a4.6,4.6,0,0,1-6.6,2.65c-17.19-9.31-28.78-19.94-26-42.76s-.58-30.46-1.13-31.53H91a7.22,7.22,0,0,0-7.22,7.23v40.66A7.23,7.23,0,0,0,91,260.42h32.76Z" transform="translate(-83.76 -165.31)" fill="#171f4c"></path>
  <path d="M178.86,205.3V172.54a7.23,7.23,0,0,0-7.23-7.23H131a7.23,7.23,0,0,0-7.23,7.23v32.62c2,.37,39.18,7.37,55.27,37.37a42.29,42.29,0,0,1,5,17.89h27.59a7.23,7.23,0,0,0,7.23-7.23V212.53a7.23,7.23,0,0,0-7.23-7.23Z" transform="translate(-83.76 -165.31)" fill="#3e68b2"></path>
  <path d="M233.74,263.79l20.56-31.12.08,1.36L235.5,205.39h12.64L260.78,225h1.68L275,205.39h12.16l-19.12,28.88-.16-1.36,21,30.88H276.38l-14.72-21.92H260L245.9,263.79Z" transform="translate(-83.76 -165.31)" fill="#171f4c"></path>
  <path d="M311.82,265.31a23,23,0,0,1-9.8-1.92,20.23,20.23,0,0,1-6.88-5.12,21.73,21.73,0,0,1-4.12-7.2,25.13,25.13,0,0,1-1.36-8.16v-1.52a25.64,25.64,0,0,1,1.4-8.44,21,21,0,0,1,4.2-7.2,20.36,20.36,0,0,1,6.92-5,24.89,24.89,0,0,1,19.72.32,18.11,18.11,0,0,1,7.16,6.12,17.68,17.68,0,0,1,3,9.12h-10.8a8.76,8.76,0,0,0-2.84-5.6,9.47,9.47,0,0,0-6.68-2.24,10.16,10.16,0,0,0-6.12,1.76A10.42,10.42,0,0,0,302,235a19.38,19.38,0,0,0-1.2,7.08,19.92,19.92,0,0,0,1.16,7,10.22,10.22,0,0,0,3.6,4.88,10.51,10.51,0,0,0,6.28,1.76,11,11,0,0,0,5-1,8.62,8.62,0,0,0,3.32-2.88,9.67,9.67,0,0,0,1.56-4.16h10.8a17.66,17.66,0,0,1-3.08,9.24,19,19,0,0,1-7.28,6.2A22.88,22.88,0,0,1,311.82,265.31Z" transform="translate(-83.76 -165.31)" fill="#171f4c"></path>
  <path d="M351.66,264.91a19.19,19.19,0,0,1-8.28-1.68,12.77,12.77,0,0,1-5.52-4.8,13.83,13.83,0,0,1-2-7.52,12.36,12.36,0,0,1,2.36-7.84,14,14,0,0,1,6.64-4.56,29.82,29.82,0,0,1,10-1.52H365v6.64H354.78a8.34,8.34,0,0,0-5.88,1.88,6.27,6.27,0,0,0-2,4.84,6.17,6.17,0,0,0,2,4.8,8.53,8.53,0,0,0,5.88,1.84,10.75,10.75,0,0,0,4.28-.84,7.33,7.33,0,0,0,3.28-2.88,11.16,11.16,0,0,0,1.48-5.56l2.72,3.12a18.51,18.51,0,0,1-2.2,7.68,12.09,12.09,0,0,1-5,4.76A16.65,16.65,0,0,1,351.66,264.91Zm14-1.12V250.91h-1.84V236.59q0-3.76-1.84-5.6t-5.68-1.84c-1.34,0-2.94,0-4.8.08s-3.75.12-5.64.2-3.59.17-5.08.28v-9.44c1.22-.11,2.61-.22,4.16-.32s3.13-.18,4.76-.2,3.16,0,4.6,0a30.37,30.37,0,0,1,11.16,1.76,13.29,13.29,0,0,1,6.72,5.52,18.76,18.76,0,0,1,2.28,9.84v27Z" transform="translate(-83.76 -165.31)" fill="#171f4c"></path>
  <path d="M384.38,263.79V220.35h8.8v18.4h-.24q0-9.36,4-14.16t11.76-4.8h1.6v9.68h-3q-5.61,0-8.68,3c-2.06,2-3.08,4.89-3.08,8.68v22.64Z" transform="translate(-83.76 -165.31)" fill="#171f4c"></path>
  <path d="M434.86,265.31a23.38,23.38,0,0,1-9.8-1.92,19.8,19.8,0,0,1-7-5.16,22.58,22.58,0,0,1-4.16-7.24,24.4,24.4,0,0,1-1.4-8.16v-1.52a25.17,25.17,0,0,1,1.4-8.36,21.39,21.39,0,0,1,4.16-7.2,20,20,0,0,1,6.84-5,22.22,22.22,0,0,1,9.44-1.88,21.26,21.26,0,0,1,11.8,3.08,19.51,19.51,0,0,1,7.16,8.08,24.53,24.53,0,0,1,2.4,10.76v4H417.26V238h31.52l-3.44,3.36a18.9,18.9,0,0,0-1.2-7.12,9.5,9.5,0,0,0-3.64-4.56,10.93,10.93,0,0,0-6.12-1.6,11.1,11.1,0,0,0-6.24,1.68,10.35,10.35,0,0,0-3.88,4.84,19.52,19.52,0,0,0-1.32,7.56,19.24,19.24,0,0,0,1.28,7.24,10.71,10.71,0,0,0,3.92,5,11.68,11.68,0,0,0,6.72,1.8,12.16,12.16,0,0,0,6.64-1.64,7.32,7.32,0,0,0,3.28-4H455a18.46,18.46,0,0,1-3.68,7.84,18.15,18.15,0,0,1-6.92,5.2A23.73,23.73,0,0,1,434.86,265.31Z" transform="translate(-83.76 -165.31)" fill="#171f4c"></path>
</svg>
