<svg xmlns="http://www.w3.org/2000/svg" width="232.37" height="81.87" viewBox="0 0 232.37 81.87">
  <defs>
    <style>
      .cls-1, .cls-2 {
        fill: #ff1d25;
      }

      .cls-2, .cls-3 {
        stroke: #ff1d25;
        stroke-linecap: round;
      }

      .cls-2 {
        stroke-linejoin: round;
      }

      .cls-3 {
        fill: none;
      }

      .cls-3, .cls-4 {
        stroke-miterlimit: 10;
      }

      .cls-4 {
        fill: #ed1e79;
        stroke: #29abe2;
      }

      .cls-5 {
        fill: #ff7bac;
      }
    </style>
  </defs>
  <g id="Layer_2" data-name="Layer 2">
    <g id="Layer_2-2" data-name="Layer 2">
      <path class="cls-1" d="M90.33,27.87l-.15-2.13A13.16,13.16,0,0,0,90,23.68a2.76,2.76,0,0,0-1-1.53,3.89,3.89,0,0,0-1.68-.74h.09c-9.9.16-19.78.17-29.66-.48-4.94-.29-9.89-.53-14.83-.57q-3.7,0-7.41,0l-1.86,0a17.45,17.45,0,0,0-1.8.06,8.77,8.77,0,0,0-3.25,1.11,8.22,8.22,0,0,0-2.45,2.33,25.32,25.32,0,0,0-1.88,3c-1.13,2.14-2.1,4.38-3,6.66a36.27,36.27,0,0,1-1.53,3.5,14.18,14.18,0,0,1-2.4,3.15,34.82,34.82,0,0,1-6,4.74L8.26,47a11.25,11.25,0,0,1-1.72,1,9.83,9.83,0,0,0-1.5.81,6.05,6.05,0,0,0-1.18,1.1A7.14,7.14,0,0,0,3,51.2a9.28,9.28,0,0,0-.25,3.33c0,1.22.14,2.47.1,3.76a7.63,7.63,0,0,1-.28,2,4.5,4.5,0,0,1-.43,1l-.36.44-.05,0c.11-.07-.17.13-.15.11h0l-.07,0a.51.51,0,0,0-.13.09,1.14,1.14,0,0,0-.4.52,2,2,0,0,0-.08.33l0,.45-.1,1.86C.67,66.4.61,67.63.53,68.87A.12.12,0,0,1,.42,69a.09.09,0,0,1-.09-.09C.24,67.63.18,66.4.12,65.16L0,63.3l0-.47a2.3,2.3,0,0,1,.07-.58,2.16,2.16,0,0,1,.63-1l.24-.18L1.07,61l0,0S.88,61.13,1,61l0,0a3,3,0,0,1,.2-.29A3.49,3.49,0,0,0,1.47,60a6.8,6.8,0,0,0,.1-1.7c0-1.19-.23-2.4-.36-3.65a10.24,10.24,0,0,1,.15-4,7.26,7.26,0,0,1,1.1-1.83,7.92,7.92,0,0,1,1.47-1.48,11.58,11.58,0,0,1,1.73-1,11.25,11.25,0,0,0,1.44-.92l3.07-2.11a39.67,39.67,0,0,0,5.62-4.49,14.15,14.15,0,0,0,2.13-2.69c.54-.92,1-2.13,1.52-3.25a66.69,66.69,0,0,1,3.31-6.74,27.7,27.7,0,0,1,2.16-3.17,13,13,0,0,1,1.35-1.44A8.6,8.6,0,0,1,28,20.35a10,10,0,0,1,3.81-1,16.9,16.9,0,0,1,1.9,0l1.86.09c2.47.12,4.94.22,7.41.28,5,.14,9.89.07,14.84,0,9.89-.28,19.78.08,29.67.6h.08a4.61,4.61,0,0,1,2.11,1.13,3.58,3.58,0,0,1,1.07,2.09,14.54,14.54,0,0,1,0,2.2l-.14,2.13a.12.12,0,0,1-.11.09A.09.09,0,0,1,90.33,27.87Z"/>
      <path class="cls-1" d="M13.73,69.42c-1.71,0-3.42,0-5.12,0a18.24,18.24,0,0,1-2.56-.06,11.53,11.53,0,0,1-2.52-.6.06.06,0,0,1,0-.07s0,0,0,0a10.88,10.88,0,0,1,2.58-.3,18.23,18.23,0,0,1,2.54.26q2.54.28,5.07.66a.06.06,0,0,1,0,.06A.07.07,0,0,1,13.73,69.42Z"/>
      <path class="cls-1" d="M28.43,57.37a9.5,9.5,0,0,0-7,5,12.55,12.55,0,0,0-1.05,4.18,11.9,11.9,0,0,0,.83,4.17,10,10,0,0,0,2.15,3.66A6,6,0,0,0,25,75.64a9.09,9.09,0,0,0,2,.7,9.91,9.91,0,0,0,4.37,0,11.17,11.17,0,0,0,4.11-2,9.32,9.32,0,0,1-3.82,2.91,10.94,10.94,0,0,1-2.41.62,10.54,10.54,0,0,1-2.51,0,9,9,0,0,1-2.49-.65A7.83,7.83,0,0,1,22,75.75a11.41,11.41,0,0,1-2.7-4.31A14.66,14.66,0,0,1,18.66,69a10,10,0,0,1-.18-2.6,12.38,12.38,0,0,1,1.57-4.77,8.84,8.84,0,0,1,3.67-3.38A9,9,0,0,1,28.43,57.37Z"/>
      <path class="cls-1" d="M29.75,63a4.63,4.63,0,0,0-2.29,2.36,3.49,3.49,0,0,0-.08,1.18l.06.7a3.78,3.78,0,0,0,.17.6,2.13,2.13,0,0,0,.48,1,2.86,2.86,0,0,0,.94.83,5.05,5.05,0,0,0,3.33.69h.06a.09.09,0,0,1,.1.08.07.07,0,0,1,0,.08,4.35,4.35,0,0,1-3.89.68,4.08,4.08,0,0,1-2.9-2.71,5.82,5.82,0,0,1-.2-1c0-.34,0-.69,0-1a4,4,0,0,1,.66-1.94,4.44,4.44,0,0,1,3.59-1.66.09.09,0,0,1,.09.09.09.09,0,0,1,0,.08Z"/>
      <path class="cls-1" d="M76,57.64a9.48,9.48,0,0,0-7,5,12.38,12.38,0,0,0-1.06,4.18A12,12,0,0,0,68.72,71a9.89,9.89,0,0,0,2.15,3.65,6,6,0,0,0,1.61,1.24,9.84,9.84,0,0,0,2,.7,10.07,10.07,0,0,0,4.37,0,11,11,0,0,0,4.11-2,9.34,9.34,0,0,1-3.82,2.92,10.39,10.39,0,0,1-2.41.61,10.54,10.54,0,0,1-2.51,0,8.65,8.65,0,0,1-2.49-.65A7.62,7.62,0,0,1,69.54,76a11.41,11.41,0,0,1-2.7-4.31,15.14,15.14,0,0,1-.65-2.42A9.9,9.9,0,0,1,66,66.7a12.65,12.65,0,0,1,1.57-4.78,8.82,8.82,0,0,1,3.67-3.37A9.06,9.06,0,0,1,76,57.64Z"/>
      <path class="cls-1" d="M76.85,63.19a4.63,4.63,0,0,0-2.29,2.36,3.25,3.25,0,0,0-.08,1.18l0,.7c.08.19.08.44.17.6a2.23,2.23,0,0,0,.49,1,3,3,0,0,0,.94.83,5.11,5.11,0,0,0,3.33.68h.06a.1.1,0,0,1,.1.08.08.08,0,0,1,0,.08,4.36,4.36,0,0,1-3.89.68,4.06,4.06,0,0,1-2.9-2.71,5,5,0,0,1-.2-1,8.85,8.85,0,0,1,0-1,3.73,3.73,0,0,1,.66-1.93A4.41,4.41,0,0,1,76.85,63a.09.09,0,0,1,.09.09.12.12,0,0,1,0,.08Z"/>
      <path class="cls-1" d="M61.35,69.39c-1.72.06-3.45.07-5.17.1H51a37,37,0,0,1-5.16-.1,22.18,22.18,0,0,1-5.1-1.19.12.12,0,0,1-.06-.14.09.09,0,0,1,.07-.06A22.17,22.17,0,0,1,46,67.4a38.55,38.55,0,0,1,5.13.49l5.14.6c1.71.24,3.42.44,5.13.7a.1.1,0,0,1,.08.11A.11.11,0,0,1,61.35,69.39Z"/>
      <path class="cls-1" d="M55.82,63.7c-2.22-.09-4.43-.21-6.65-.36a30.9,30.9,0,0,1-3.32-.25,17.93,17.93,0,0,1-3.25-.8.06.06,0,0,1,0-.07.09.09,0,0,1,0,0A17.92,17.92,0,0,1,46,62.1a30.77,30.77,0,0,1,3.3.45c2.19.32,4.39.67,6.57,1.05a.06.06,0,0,1,.05.06A.07.07,0,0,1,55.82,63.7Z"/>
      <path class="cls-1" d="M28.43,26.57a12.52,12.52,0,0,1,2.47-.7,18.88,18.88,0,0,1,2.48-.31h.09a2.58,2.58,0,0,1,1.62.76,2.68,2.68,0,0,1,.7,1.47,12.55,12.55,0,0,1-.17,2.69c-.13,1.66.31,3.35.32,5a28.59,28.59,0,0,1-.19,5,22.87,22.87,0,0,1-1.18,4.92.1.1,0,0,1-.14.06.11.11,0,0,1-.06-.07,23.54,23.54,0,0,1-.62-5,28.67,28.67,0,0,1,.39-5c.19-1.65.82-3.28.88-4.94a3.67,3.67,0,0,0-.39-2.26,1.87,1.87,0,0,0-1.26-.82h.09a20.9,20.9,0,0,1-2.5-.1,11.23,11.23,0,0,1-2.52-.49.09.09,0,0,1-.07-.13A.13.13,0,0,1,28.43,26.57Z"/>
      <path class="cls-2" d="M52.31,38.28h-.12l-2.79.11a1.91,1.91,0,0,1-1.2-1.63,21,21,0,0,1,.18-2.46s-.07-1.12,1.85-1.34a21.13,21.13,0,0,1,4.4.15,1,1,0,0,0,.56-.07,1.87,1.87,0,0,0,1.07-2c0-1.57-.06-2.9-.07-3.28a1.36,1.36,0,0,1,0-.29c.1-.36.47-1.15,1.89-1.23,1.84-.11,2.74.14,2.67,2.35s0,3.32,0,3.32-.29,1.48,1.91,1.45,4.52-.18,4.52-.18A1.48,1.48,0,0,1,68.81,35c-.19,1.91-.22,3.54-.22,3.54a2,2,0,0,1-2.17,1.52c-1.92,0-2.82-.15-2.82-.15S62,39.58,62,41.57a44.6,44.6,0,0,0,.33,4.59s.29,2.67-2.24,2.53l-2.53-.15s-2.21-.14-2-2.93c.17-1.9.29-4.51.35-6a1.15,1.15,0,0,0-1.06-1.19Z"/>
      <path class="cls-1" d="M4.88,51.34a1.66,1.66,0,0,1,.68.41c.1.14.18.27.05.41s-.45.28-.51.42,0,.27.23.4a1.09,1.09,0,0,1,.4.41.62.62,0,0,1,.13.41c-.09.28-.33.55-1,.83a.23.23,0,0,1-.2,0c-.64-.27-.88-.54-1-.81a.68.68,0,0,1,.12-.42,1.09,1.09,0,0,1,.4-.41c.18-.14.29-.27.22-.41s-.38-.27-.51-.41-.05-.27,0-.41a1.52,1.52,0,0,1,.68-.42A.34.34,0,0,1,4.88,51.34Z"/>
      <path class="cls-1" d="M4.44,65.82A5.49,5.49,0,0,1,3.3,64.48a3.21,3.21,0,0,1-.57-1.8,2,2,0,0,1,.83-1.56,3.85,3.85,0,0,1,.64-.38l.66-.23L4.43,61a3.65,3.65,0,0,0-.29.55.81.81,0,0,0,.07.86,2,2,0,0,0,.7.47,2.93,2.93,0,0,0,.94.25,1.67,1.67,0,0,1,0,3.33,1.71,1.71,0,0,1-1.06-.4Z"/>
      <path class="cls-1" d="M89.4,25.47l-.79,25.39L87.4,25.49a1,1,0,1,1,2-.1Z"/>
      <path class="cls-3" d="M91.87,21.72a5.34,5.34,0,0,1,.64,3.11c0,2.25-.71,44.43-.71,44.43a5.33,5.33,0,0,0,5.7,4.8c5.34,0,53.7.27,53.7.27a2.51,2.51,0,0,0,2.22-1.08l1.36-2a11.25,11.25,0,0,1,1,1.4A22.92,22.92,0,0,0,157.54,75a3.3,3.3,0,0,0,4.17-.93c2.07-2.22,2.07-2.65,2.07-2.65s1.08-1.63,1.51.11a8,8,0,0,0,1.2,2.71s.43,1.3,2.38,1.14,7.21,0,7.21,0a5.48,5.48,0,0,0,4.29-3.8c1.19-3.47,3.63-9.75,3.63-9.75l1-2.28,2.17,12.69a2.5,2.5,0,0,0,2,2.11,3.56,3.56,0,0,0,3.85-2.22,10.91,10.91,0,0,1,1-2.12l1.36,3.26s.87,3.19,2.33-.71,6.07-16.37,6.07-16.37.81-3.53,1.52,1S208.72,74,208.72,74s1.9,2.22,3.47-1.41,3.31-.71,3.31-.71l3.2,8.35s1.08,3.53,2.06-1.9,1.3-5.91,1.3-5.91,1.08-1.51,2.28.38,7.53,3.26,7.53,3.26"/>
      <path class="cls-1" d="M31.65,17.24a19.33,19.33,0,0,1-.85-2.68c-.23-.9-.41-1.79-.56-2.69v-.2a3.25,3.25,0,0,1,.45-1.43,2.94,2.94,0,0,1,1.17-1.12,3.34,3.34,0,0,1,1.51-.36,5.08,5.08,0,0,1,.58,0l.49,0a23.85,23.85,0,0,1,3.79.67l.18,0,.06,0a3.48,3.48,0,0,1,.73.44,5.16,5.16,0,0,1,.54.5,4.6,4.6,0,0,1,.82,1.19A4.87,4.87,0,0,1,41,14.31a18,18,0,0,1-.45,2.14,16.18,16.18,0,0,1-.64,2.09,16.65,16.65,0,0,1-.57-2.12c-.17-.69-.27-1.44-.39-2.07a3.32,3.32,0,0,0-.61-1.41,2.6,2.6,0,0,0-.48-.46,1.51,1.51,0,0,0-.26-.18l-.18-.08.23.07-3.52-.56-.42-.06-.35-.05a1.06,1.06,0,0,0-.3,0,.27.27,0,0,0-.2.07c-.07.05-.19.26-.23.28v-.19c-.08.91-.18,1.82-.34,2.73A21.19,21.19,0,0,1,31.65,17.24Z"/>
      <path class="cls-1" d="M29,14a3.69,3.69,0,0,1-1.19,1.42A3.37,3.37,0,0,1,25,16a3.75,3.75,0,0,1-1.62-.9,3.77,3.77,0,0,1,1.19-1.42,3.32,3.32,0,0,1,2.82-.52A3.82,3.82,0,0,1,29,14Z"/>
      <path class="cls-1" d="M29.23,10a6.62,6.62,0,0,1-2.58-.55,9,9,0,0,1-2-1.22A8.72,8.72,0,0,1,23,6.51a6.69,6.69,0,0,1-1.11-2.39,6.58,6.58,0,0,1,2.58.55,9,9,0,0,1,2.05,1.22,9.3,9.3,0,0,1,1.64,1.73A6.78,6.78,0,0,1,29.23,10Z"/>
      <path class="cls-1" d="M35,8.2A5.5,5.5,0,0,1,33.9,6.12,6.76,6.76,0,0,1,34,2a5.56,5.56,0,0,1,1.24-2,5.43,5.43,0,0,1,1.12,2.09,6.62,6.62,0,0,1,.26,2.06,7,7,0,0,1-.39,2A5.61,5.61,0,0,1,35,8.2Z"/>
      <path class="cls-1" d="M41.23,10.16a6.59,6.59,0,0,1,1.65-2.07,8.79,8.79,0,0,1,4.3-2,6.63,6.63,0,0,1,2.65.06,6.63,6.63,0,0,1-1.65,2.08,8.86,8.86,0,0,1-2,1.29,9.24,9.24,0,0,1-2.29.71A7,7,0,0,1,41.23,10.16Z"/>
      <path class="cls-1" d="M42.49,13.55a4.76,4.76,0,0,1,1.6-1.4,5.05,5.05,0,0,1,1.72-.57,5.28,5.28,0,0,1,1.81.07,4.64,4.64,0,0,1,1.92.93A4.6,4.6,0,0,1,47.94,14a5.05,5.05,0,0,1-3.52.48A4.53,4.53,0,0,1,42.49,13.55Z"/>
      <g>
        <path class="cls-4" d="M175.4,58.78l5.88-.44a25.69,25.69,0,0,1-2.55,11.08c-1.53,2.9-3.4,4.34-5.6,4.34s-4.29-1.59-5.89-4.77a25.78,25.78,0,0,1-2.41-11.71A24.16,24.16,0,0,1,167.26,46q2.43-4.69,5.82-4.69c2,0,3.72,1.23,5.24,3.69a21.77,21.77,0,0,1,2.82,9.39l-6,.44c-.52-1.33-1.18-2-2-2s-1.23.44-1.66,1.31a7.36,7.36,0,0,0-.66,3.31,7.51,7.51,0,0,0,.7,3.4c.46.92,1,1.37,1.72,1.37C174.26,62.24,175,61.09,175.4,58.78Z"/>
        <path class="cls-4" d="M197.19,60.36h-5.47a10.62,10.62,0,0,1-.13-1.5,9.61,9.61,0,0,1,.18-1.86h1.83c-.13-1.4-.53-2.11-1.21-2.11-.45,0-.81.38-1.09,1.13a8.19,8.19,0,0,0-.43,2.89,9.06,9.06,0,0,0,.41,3q.41,1.14,1.08,1.14c.36,0,.7-.35,1-1.06l2,4.85c-1,1.48-2,2.22-3.19,2.22q-2.14,0-3.6-2.82a15.21,15.21,0,0,1-1.45-7,15.25,15.25,0,0,1,1.47-7q1.47-2.87,3.61-2.86t3.51,2.79a15.12,15.12,0,0,1,1.42,6.9C197.22,59.31,197.21,59.75,197.19,60.36Z"/>
        <path class="cls-4" d="M161.12,70.18h-2.56V62.61c0-.77-.16-1.15-.48-1.15s-.48.38-.48,1.15v7.57h-2.55V62.71a10,10,0,0,1,.88-4.42c.59-1.2,1.3-1.79,2.16-1.79s1.75.69,2.34,2.08a11.9,11.9,0,0,1,.69,4.53Z"/>
        <path class="cls-4" d="M148.58,63v7.19a2.43,2.43,0,0,1-.79.15q-2.11,0-3.54-2.75a15,15,0,0,1-1.41-6.89,14.8,14.8,0,0,1,1.43-6.83q1.42-2.8,3.47-2.81,2.3,0,3.6,2.63a16.17,16.17,0,0,1,1.32,7.18v9.08h-3.53V61.36a6.25,6.25,0,0,0-.36-2.34c-.24-.58-.57-.87-1-.87s-.69.26-1,.79a4.8,4.8,0,0,0,0,3.79c.25.5.56.74.93.74A1.11,1.11,0,0,0,148.58,63Z"/>
        <path class="cls-4" d="M139.32,29.41V72h-5.93V29.41Z"/>
        <path class="cls-4" d="M129.06,57.36h2.78V65.6c0,.83.18,1.25.53,1.25s.52-.42.52-1.25V57.36h2.78V65.5a10.83,10.83,0,0,1-1,4.8c-.64,1.3-1.42,2-2.35,2s-1.91-.76-2.55-2.27a13,13,0,0,1-.75-4.92Z"/>
        <path class="cls-4" d="M121.86,48.34V61.9c0,2.21.4,3.31,1.21,3.31q.51,0,.87-.69a3.58,3.58,0,0,0,.36-1.67,3.79,3.79,0,0,0-.34-1.7c-.22-.46-.5-.69-.83-.69s-.49.2-.79.6V54.22a4.81,4.81,0,0,1,.85-.1c1.18,0,2.2.84,3,2.52a13.38,13.38,0,0,1,1.27,6.08,13.19,13.19,0,0,1-1.29,6.12c-.86,1.66-1.91,2.49-3.17,2.49a2.74,2.74,0,0,1-1.84-.81,6.08,6.08,0,0,1-1.48-2.19,16,16,0,0,1-1-6.19V48.34Z"/>
        <path class="cls-4" d="M120.93,72.23h-2.42V65.39a5.26,5.26,0,0,0-.08-1.09q-.09-.3-.3-.3c-.28,0-.41.47-.41,1.41v6.82h-2.41V65.39a4.49,4.49,0,0,0-.09-1.09c-.06-.2-.16-.3-.31-.3s-.4.47-.4,1.41v6.82H112.1v-7.8a8.11,8.11,0,0,1,.73-3.62q.72-1.5,1.77-1.5c.71,0,1.35.6,1.92,1.78.63-1.18,1.26-1.78,1.9-1.78.8,0,1.45.58,1.93,1.73a10.27,10.27,0,0,1,.58,3.92Z"/>
        <path class="cls-4" d="M104.77,58.1v7.77h-1.28v7H99V54.15a19.12,19.12,0,0,1,1.51-8.45q1.51-3,4.24-3a4.12,4.12,0,0,1,3.9,2.73q1.26,2.75,1.26,8.44v19h-4.46V54.43a9.25,9.25,0,0,0-.21-2.4c-.13-.44-.38-.67-.74-.67-.7,0-1,1-1,3.07V58.1Z"/>
        <path class="cls-5" d="M100.11,63l-4.49,4.78a7.63,7.63,0,0,1-1.16-.88,7.38,7.38,0,0,1-1.17-1.39l1.5-1.6c-1.09-.81-1.92-.93-2.47-.34a1.52,1.52,0,0,0-.11,1.71,6.63,6.63,0,0,0,1.69,2.29,7.15,7.15,0,0,0,2.44,1.61q1.14.4,1.68-.18c.3-.32.34-.85.11-1.62l5.11,1.43A4.89,4.89,0,0,1,102.18,73a5.07,5.07,0,0,1-4.94,1.27A14,14,0,0,1,87.37,65c-.54-2.12-.23-3.8.95-5s2.76-1.62,4.85-1.22a12.26,12.26,0,0,1,6,3.33C99.4,62.23,99.7,62.54,100.11,63Z"/>
      </g>
    </g>
  </g>
</svg>
