<svg xmlns="http://www.w3.org/2000/svg" width="430" height="430" style="width:100%;height:100%;transform:translate3d(0,0,0);content-visibility:visible" viewBox="0 0 430 430"><defs><clipPath id="g"><path d="M0 0h430v430H0z"/></clipPath><clipPath id="n"><path d="M0 0h430v430H0z"/></clipPath><clipPath id="d"><path d="M0 0h430v430H0z"/></clipPath><clipPath id="k"><path d="M0 0h430v430H0z"/></clipPath><clipPath id="e"><path d="M0 0h430v430H0z"/></clipPath><clipPath id="h"><path d="M0 0h430v430H0z"/></clipPath><clipPath id="f"><path d="M0 0h430v430H0z"/></clipPath><filter id="o" width="300%" height="300%" x="-100%" y="-100%"><feGaussianBlur result="filter_result_0"/></filter><filter id="m" width="300%" height="300%" x="-100%" y="-100%"><feGaussianBlur result="filter_result_0" stdDeviation="52.5 52.5"/></filter><filter id="i" width="300%" height="300%" x="-100%" y="-100%"><feGaussianBlur result="filter_result_0"/></filter><mask id="p" mask-type="alpha"><use xmlns:ns1="http://www.w3.org/1999/xlink" ns1:href="#a"/></mask><mask id="l" mask-type="alpha"><use xmlns:ns2="http://www.w3.org/1999/xlink" ns2:href="#b"/></mask><mask id="j" mask-type="alpha"><use xmlns:ns3="http://www.w3.org/1999/xlink" ns3:href="#c"/></mask><g id="a" fill-opacity="0" stroke-linecap="round" stroke-linejoin="round" clip-path="url(#d)" style="display:none"><g style="display:none"><path class="secondary"/><path class="secondary"/></g><path class="primary" style="display:none"/></g><g id="b" fill-opacity="0" stroke-linecap="round" stroke-linejoin="round" stroke-width="11" clip-path="url(#e)" style="display:block"><path stroke="#121331" d="M-146.257-12.233c6.756-80.775 77.715-140.78 158.49-134.024 68.149 5.7 121.513 57.099 132.474 121.538m1.55 36.951c-6.756 80.775-77.714 140.781-158.489 134.025-68.151-5.7-121.517-57.103-132.476-121.544m-26.347-70.48 24.807 33.535 33.536-24.807m283.773 82.806-24.808-33.535-33.535 24.807" class="primary" style="display:block" transform="matrix(-1.09 0 0 1.09 215.006 215)"/><path stroke="#08A88A" d="M202.935 259.033H150.25l43.709-52.58a21.808 21.808 0 0 0 4.507-13.297c0-12.088-9.79-21.878-21.878-21.878-12.077 0-21.866 9.79-21.866 21.878m125.033 35.124h-56.053l43.602-57.313v88.066" class="secondary" style="display:block"/></g><g id="c" fill-opacity="0" stroke-linecap="round" stroke-linejoin="round" clip-path="url(#f)" style="display:none"><path class="primary" style="display:none"/><g style="display:none"><path class="secondary"/><path class="secondary"/></g></g></defs><g clip-path="url(#g)"><g clip-path="url(#h)" filter="url(#i)" mask="url(#j)" style="display:none"><g class="design"><path class="primary"/></g><g class="design"><path class="secondary"/></g></g><g clip-path="url(#k)" mask="url(#l)" style="display:block"><g filter="url(#m)" transform="rotate(-94 238.762 -16.565) scale(2.4)"><g class="design"><path fill="#4BE1EC" d="M0-250c137.975 0 250 112.025 250 250S137.975 250 0 250-250 137.975-250 0-137.975-250 0-250z" class="primary"/></g><g class="design"><path fill="#CB5EEE" d="M113.242-295.384c97.478 0 176.5 79.022 176.5 176.5s-79.022 176.5-176.5 176.5c-43.948 0-74.396-34.057-105.29-60.631-37.631-32.369-71.21-62.338-71.21-115.869 0-97.478 79.022-176.5 176.5-176.5z" class="secondary"/></g></g></g><g clip-path="url(#n)" filter="url(#o)" mask="url(#p)" style="display:none"><g class="design"><path class="primary"/></g><g class="design"><path class="secondary"/></g></g></g></svg>