<svg xmlns="http://www.w3.org/2000/svg" width="60.25" height="61" viewBox="0 0 60.25 61">
  <defs>
    <style>
      .cls-1 {
      fill: #aeffc3;
      }

      .cls-2, .cls-4, .cls-6 {
      fill: none;
      }

      .cls-10, .cls-11, .cls-2, .cls-4, .cls-6, .cls-8, .cls-9 {
      stroke: #0071bc;
      stroke-miterlimit: 10;
      stroke-width: 1px;
      }

      .cls-2 {
      stroke-dasharray: 2.01 2.01;
      }

      .cls-10, .cls-3 {
      fill: #fff;
      }

      .cls-5, .cls-8 {
      fill: #f993d4;
      }

      .cls-6 {
      stroke-linecap: round;
      }

      .cls-7 {
      fill: #0071bc;
      }

      .cls-9 {
      fill: #ffe36d;
      }

      .cls-11 {
      fill: #aefff0;
      }

      #c-out{
      animation: rotate-c 4s linear infinite;
      transform-box: fill-box;
      transform-origin: center;
      }

      @keyframes rotate-c {
      0%{
      transform: rotate(0deg);
      }
      100%{
      transform: rotate(360deg);
      }
      }

      #oxygen-tank {
      animation: flash 4s linear infinite;
      transform-box: fill-box;
      transform-origin: center;
      }

      @keyframes flash {
      0% {
      scale: 1;
      }
      50%{
      scale: 0.8;
      }
      100%{
      scale: 1;
      }
      }

      #wheel-chair {
        animation: flash 4s linear 1s infinite;
        transform-box: fill-box;
        transform-origin: center;
        }
  
        @keyframes flash {
        0% {
        scale: 1;
        }
        50%{
        scale: 0.8;
        }
        100%{
        scale: 1;
        }
        }
      #glove {
        animation: flash 4s linear 2s infinite;
        transform-box: fill-box;
        transform-origin: center;
        }
  
        @keyframes flash {
        0% {
        scale: 1;
        }
        50%{
        scale: 0.8;
        }
        100%{
        scale: 1;
        }
        }
    </style>
  </defs>
  <g id="Layer_2" data-name="Layer 2">
    <g id="Layer_1-2" data-name="Layer 1">
      <circle class="cls-1" cx="29.55" cy="29.55" r="21.11" />
      <circle id="c-out" class="cls-2" cx="29.55" cy="29.55" r="29.43" />
      <g id="oxygen-tank">
        <g>
          <path class="cls-3"
            d="M14,10V6.5H8V10A4.36,4.36,0,0,0,4.31,14.2v14A6.58,6.58,0,0,0,11,34.72a6.58,6.58,0,0,0,6.68-6.49v-14A4.36,4.36,0,0,0,14,10Z" />
          <path class="cls-4"
            d="M14,10V6.5H8V10A4.36,4.36,0,0,0,4.31,14.2v14A6.58,6.58,0,0,0,11,34.72a6.58,6.58,0,0,0,6.68-6.49v-14A4.36,4.36,0,0,0,14,10Z" />
        </g>
        <g>
          <path class="cls-5"
            d="M12.8,3.92h1a.82.82,0,0,0,.81-.82.81.81,0,0,0-.81-.81H8.16a.81.81,0,0,0-.81.81.82.82,0,0,0,.81.82h1V6.5H12.8Z" />
          <path class="cls-4"
            d="M12.8,3.92h1a.82.82,0,0,0,.81-.82.81.81,0,0,0-.81-.81H8.16a.81.81,0,0,0-.81.81.82.82,0,0,0,.81.82h1V6.5H12.8Z" />
        </g>
        <line class="cls-6" x1="2.81" y1="14.36" x2="19.86" y2="14.36" />
        <path class="cls-7"
          d="M12.07,25.12v-.48a3.6,3.6,0,0,0,1-.81,1.41,1.41,0,0,0,.35-.88.57.57,0,0,0-.13-.39.53.53,0,0,0-.39-.13.7.7,0,0,0-.36.1,1.09,1.09,0,0,0-.33.27L12,22.51a1,1,0,0,1,.42-.35A1.39,1.39,0,0,1,13,22a1,1,0,0,1,.72.22.93.93,0,0,1,.24.69,1.51,1.51,0,0,1-.3.89,3.12,3.12,0,0,1-.89.82v.46Zm.13,0v-.4H14v.4Z" />
        <path class="cls-7"
          d="M9.81,22.74c-1.37,0-2.06-.94-2.06-2.83S8.44,17,9.81,17s2.06,1,2.06,2.9S11.18,22.74,9.81,22.74Zm0-.72c.82,0,1.23-.7,1.23-2.11s-.41-2.18-1.23-2.18-1.23.73-1.23,2.18S9,22,9.81,22Z" />
        <line class="cls-6" x1="2.84" y1="28.3" x2="19.9" y2="28.3" />
        <path class="cls-8"
          d="M25.71,17.71H23.5s-1.54.23-2.24-3.87-.73-3.31-.73-3.31-.27-1.13,1.26-2.16.85-.53.85-.53S23,5.48,24.2,5.05a5,5,0,0,1,1.71-.4s1.76.48,2.14,1a6.39,6.39,0,0,1,.8,2c.5.33,1.36.86,1.36.86s1,.88.68,3A32.91,32.91,0,0,1,30,15.68s-.68,2-2.29,2A10.37,10.37,0,0,1,25.71,17.71Z" />
        <path class="cls-9"
          d="M16.16,32.39l1.21-1.91s8.59.75,7.48-7.84l0-7.49,1.81-.05.1,7.74s1.51,8.85-8.34,9.6Z" />
        <rect class="cls-9" x="23.65" y="10.53" width="4.12" height="4.72" />
      </g>
      <g id="wheel-chair">
        <path class="cls-10"
          d="M50.12,25h.57l0,5a1.19,1.19,0,0,0,.87.87,15.58,15.58,0,0,0,2.68,0l1.08-.1,0-1.78L52.63,29V13.26l2.85-.07s1.2.24,1.34-.87-.84-1.14-1.38-1.14l-13-.07-.64-7a2.44,2.44,0,0,0-2.21-2.65,26.48,26.48,0,0,0-4.49,0L35,3.48l3.78,0s.87.3.84.67,0,9.15,0,9.15l10.82-.11.21,10-.71.07Z" />
        <g>
          <circle class="cls-11" cx="40.75" cy="24.26" r="9.35" />
          <path class="cls-10"
            d="M40.67,31.47a7.19,7.19,0,1,1,7.18-7.19A7.19,7.19,0,0,1,40.67,31.47Z" />
          <circle class="cls-11" cx="40.75" cy="24.26" r="2.58" />
          <circle class="cls-11" cx="57.13" cy="30.02" r="2.99" />
          <rect class="cls-9" x="38.96" y="4.04" width="3.42" height="10.59" rx="0.92" />
          <rect class="cls-9" x="44.52" y="12.42" width="3.42" height="15.28" rx="0.92"
            transform="translate(26.17 66.29) rotate(-90)" />
        </g>
      </g>
      <g id="glove">
        <path class="cls-11"
          d="M24.25,59.23l-3,.26S19.88,59.28,19.9,57s-.51-8.11-.51-8.11L17,42.56s-1.63-2.57-.17-3.15,1.71.57,2,1.14,1.62,3.78,1.62,3.78a.77.77,0,0,0,.87.42,1.18,1.18,0,0,0,.84-1.17c0-.39-.9-8.16-.9-8.16a1.45,1.45,0,0,1,1.08-1.34c1.08-.28,1.45,1.19,1.5,1.44s1,8.39,1,8.39.13.59.62.61.63-1,.63-1l.27-9.27a1.24,1.24,0,0,1,1.24-1.35c1.36-.12,1.32,1.3,1.32,1.3l-.21,10s.48,1,.75-.14,1.51-8.22,1.51-8.22.37-1.23,1.46-1.08,1.17.89,1.17,1.11-2.05,10.7-2.05,10.7a1.86,1.86,0,0,0,.93,2.2c1.37.6,2.26-1.16,2.26-1.16l1.71-3.48a1.39,1.39,0,0,1,1.59-.4c1,.38.62,1.69.6,1.86s-2,4.34-2,4.34Z" />
        <g>
          <g>
            <path class="cls-10"
              d="M24.65,48.72a3.43,3.43,0,0,0-4.55-2.38c-3.59,1.18-1.31,5.2-1.31,5.2l4.72,7.2.34-2.45s-3.82-5-4.26-6.23,2.05-3.85,3-2.07.94,1.4.94,1.4Z" />
            <path class="cls-10"
              d="M40.53,48.86a3.44,3.44,0,0,1,4.56-2.38c3.58,1.17,1.31,5.19,1.31,5.19l-4.73,7.21-.33-2.45s3.82-5,4.25-6.23-2-3.85-3-2.08-.94,1.41-.94,1.41Z" />
            <path class="cls-10"
              d="M25.79,49a35.08,35.08,0,0,0,13.71,0l.93-.34s1,0,1.14,1.28.1,8.81.1,8.81-.1.9-1.4,1.24S30.42,61.7,26,60.2c-1.07-.14-2.78,0-2.65-2.78s.14-7.88.14-7.88a1.55,1.55,0,0,1,1.74-.73C26.36,49.11,25.79,49,25.79,49Z" />
          </g>
          <path class="cls-4" d="M37.7,52.14s-8.56.62-10.08.1-1.49,1.46-.57,1.57,9.61.47,10.75,0" />
          <path class="cls-4" d="M27.25,57s8.93.84,10.52,0" />
        </g>
      </g>
    </g>
  </g>
</svg>